<svg viewBox="0 0 24 24" fill="none" xmlns="http://www.w3.org/2000/svg">
  <path d="M15.852 8.981h-4.588V0h4.588c2.476 0 4.49 2.014 4.49 4.49s-2.014 4.491-4.49 4.491zM12.735 7.51h3.117c1.665 0 3.019-1.355 3.019-3.019s-1.355-3.019-3.019-3.019h-3.117V7.51z" fill="#1ABCFE"/>
  <path d="M8.764 4.49c0-2.476 2.014-4.49 4.49-4.49h1.49v8.981h-1.49c-2.476 0-4.49-2.014-4.49-4.491z" fill="#0ACF83"/>
  <path d="M8.764 11.755c0-2.476 2.014-4.49 4.49-4.49h1.49v8.981h-1.49c-2.476 0-4.49-2.014-4.49-4.491z" fill="#FF5722"/>
  <path d="M8.764 19.019c0-2.476 2.014-4.49 4.49-4.49h1.49V24h-1.49c-2.476 0-4.49-2.014-4.49-4.491z" fill="#F24E1E"/>
  <path d="M0 11.755c0-2.476 2.014-4.49 4.49-4.49s4.49 2.014 4.49 4.49-2.014 4.49-4.49 4.49S0 14.231 0 11.755z" fill="#A259FF"/>
</svg>