<svg viewBox="0 0 24 24" fill="none" xmlns="http://www.w3.org/2000/svg">
  <path d="M13.976 9.15c-2.172-.806-3.356-1.426-3.356-2.409 0-.831.683-1.329 1.972-1.329 2.24 0 4.817.827 6.636 2.465l2.319-2.94c-2.172-1.612-4.308-2.409-6.636-2.409C9.818 2.328 6.97 4.546 6.97 8.109c0 2.465 1.972 3.955 5.11 5.043 2.465.806 3.356 1.426 3.356 2.465 0 .806-.683 1.329-1.972 1.329-2.24 0-4.817-.806-6.636-2.465L4.509 17.42c2.172 1.612 4.817 2.465 6.636 2.465 4.817 0 7.359-2.465 7.359-5.612 0-2.465-1.612-3.955-4.528-5.108Z" fill="#6772E5"/>
</svg>